<svg width="24" height="24" viewBox="0 0 24 24" fill="none" xmlns="http://www.w3.org/2000/svg">
<g clip-path="url(#clip0_489_191511)">
<path d="M15.5154 15.0007L16.9296 13.5865C18.263 12.2532 18.9296 11.5865 18.9296 10.7581C18.9296 9.92967 18.263 9.263 16.9296 7.92967L13.1669 4.16698C12.5912 3.59119 12.3033 3.30329 11.9373 3.1511C11.5713 2.9989 11.1642 2.99774 10.3499 2.99542L8.93166 2.99138C7.0362 2.98598 6.08848 2.98328 5.50033 3.57143C4.91218 4.15958 4.91488 5.10731 4.92028 7.00276L4.92432 8.42101C4.92664 9.2353 4.9278 9.64245 5.08 10.0084C5.23219 10.3744 5.52009 10.6623 6.09588 11.238L9.85857 15.0007C11.1919 16.3341 11.8586 17.0007 12.687 17.0007C13.5154 17.0007 14.1821 16.3341 15.5154 15.0007Z" stroke="white" stroke-width="2" stroke-linecap="round"/>
<path d="M6 11.4421L9.06022 17.9814C9.85946 19.6893 10.2591 20.5432 11.0379 20.8255C11.8168 21.1077 12.6707 20.7081 14.3786 19.9089L15.1032 19.5698C16.811 18.7706 17.6649 18.3709 17.9472 17.5921C18.2295 16.8132 17.8299 15.9593 17.0306 14.2515L16.9374 14.0522" stroke="white" stroke-width="2" stroke-linecap="round"/>
<path d="M9.12144 5.70694C9.51197 6.09747 9.51197 6.73063 9.12144 7.12115C8.73092 7.51168 8.09776 7.51168 7.70723 7.12115C7.31671 6.73063 7.31671 6.09747 7.70723 5.70694C8.09776 5.31642 8.73092 5.31642 9.12144 5.70694Z" fill="white"/>
</g>
<defs>
<clipPath id="clip0_489_191511">
<rect width="24" height="24" fill="white"/>
</clipPath>
</defs>
</svg>
